<?xml version="1.0" standalone="no"?>
<!DOCTYPE svg PUBLIC "-//W3C//DTD SVG 20010904//EN"
 "http://www.w3.org/TR/2001/REC-SVG-20010904/DTD/svg10.dtd">
<svg version="1.0" xmlns="http://www.w3.org/2000/svg"
 width="965.000000pt" height="965.000000pt" viewBox="0 0 965.000000 965.000000"
 preserveAspectRatio="xMidYMid meet">
<metadata>
Created by potrace 1.14, written by Peter Selinger 2001-2017
</metadata>
<g transform="translate(0.000000,965.000000) scale(0.100000,-0.100000)"
fill="#000000" stroke="none">
<path d="M8670 9564 c-58 -47 -116 -96 -130 -107 -48 -42 -287 -225 -535 -411
-137 -103 -257 -192 -265 -199 -8 -7 -62 -48 -120 -92 -58 -44 -179 -139 -270
-210 -215 -171 -363 -281 -595 -447 -176 -126 -326 -235 -350 -255 -5 -5 -68
-53 -140 -108 -478 -365 -787 -636 -987 -865 -82 -94 -218 -279 -218 -297 0
-5 -7 -16 -14 -26 -13 -17 -20 -16 -132 17 -288 85 -467 117 -624 109 -89 -4
-183 -20 -241 -42 l-48 -19 -35 25 c-20 13 -36 28 -36 34 0 6 10 33 21 60 14
33 27 49 39 49 22 0 33 33 51 155 20 131 17 430 -5 540 -2 11 -7 43 -10 70
-13 92 -17 110 -37 184 -42 158 -118 282 -301 497 -110 129 -157 227 -187 384
-19 100 -22 114 -36 205 -38 230 -92 319 -221 360 -68 21 -126 15 -196 -20
-121 -60 -203 -146 -271 -281 -47 -94 -135 -368 -152 -474 -4 -25 -9 -54 -11
-65 -2 -10 -5 -34 -6 -52 -1 -18 -3 -33 -5 -33 -11 0 -90 202 -118 307 -27 99
-130 193 -217 198 -99 6 -238 -111 -310 -261 -22 -45 -41 -88 -42 -95 -1 -8
-8 -39 -14 -69 -17 -82 -22 -109 -28 -175 -3 -33 -7 -71 -10 -85 -2 -14 -7
-90 -10 -170 l-5 -145 -62 -132 c-34 -73 -64 -133 -67 -133 -3 0 -18 57 -33
128 -84 375 -245 697 -520 1040 -182 228 -295 329 -472 422 -41 22 -85 49 -97
59 -11 11 -37 28 -57 37 -20 9 -51 29 -70 44 -18 16 -38 27 -45 26 -37 -7 -58
-21 -73 -49 -20 -39 -68 -204 -82 -284 -6 -32 -13 -67 -15 -78 -24 -125 -30
-291 -13 -360 6 -24 67 -183 91 -237 l16 -38 -24 0 c-37 0 -80 -60 -107 -148
-12 -42 -24 -81 -25 -87 -1 -5 -5 -26 -9 -45 -15 -73 -16 -412 -1 -490 21
-112 20 -110 79 -221 98 -188 149 -284 163 -306 11 -18 11 -23 -1 -33 -14 -11
-39 -85 -49 -145 -3 -16 -9 -50 -14 -75 -9 -52 -8 -253 2 -355 11 -119 36
-206 88 -314 44 -89 63 -116 138 -190 47 -47 133 -122 191 -165 116 -88 135
-104 101 -87 -27 14 -68 17 -100 6 -28 -8 -52 -59 -52 -108 0 -85 77 -254 175
-382 36 -46 65 -88 65 -92 0 -5 11 -21 25 -37 14 -16 25 -26 25 -21 0 4 9 -4
21 -19 11 -14 27 -26 35 -26 8 0 14 -4 14 -8 0 -5 21 -20 48 -33 64 -33 79
-49 80 -86 1 -43 25 -87 68 -119 19 -15 42 -40 50 -56 17 -33 48 -55 89 -61
50 -9 157 -53 166 -70 5 -9 10 -51 12 -95 1 -44 5 -78 8 -76 4 2 5 -10 4 -26
-1 -17 1 -30 5 -30 3 0 7 -7 7 -14 0 -8 -3 -15 -6 -14 -25 2 -29 -3 -18 -27 7
-14 15 -25 20 -25 11 0 8 15 -5 28 -9 9 -9 12 0 12 7 0 13 -6 14 -12 0 -7 2
-17 2 -23 1 -5 4 -14 8 -20 3 -5 18 -55 33 -110 54 -199 148 -429 320 -780
111 -227 186 -342 383 -593 40 -50 71 -92 69 -92 -2 0 30 -35 70 -77 40 -42
73 -85 73 -95 0 -29 42 -86 74 -100 l30 -12 -45 -11 c-105 -27 -169 -81 -209
-175 -19 -44 -23 -74 -24 -152 -1 -53 -5 -94 -9 -91 -4 3 -20 -3 -35 -13 -26
-16 -331 -252 -342 -263 -3 -3 -35 -35 -72 -70 l-66 -64 -34 34 c-18 19 -51
57 -73 84 -22 28 -42 52 -45 55 -12 11 -78 118 -102 165 -33 65 -82 205 -97
275 -6 30 -14 66 -16 80 -11 49 -18 177 -18 285 2 353 0 402 -13 415 -9 9 -29
5 -80 -16 -190 -76 -334 -185 -489 -369 -27 -33 -53 -62 -56 -65 -43 -38 -219
-341 -253 -435 -63 -174 -174 -534 -225 -725 -43 -164 -69 -292 -86 -430 -11
-91 -4 -377 11 -454 2 -12 9 -50 15 -86 9 -61 14 -81 39 -180 l11 -40 1138 0
1139 0 120 123 c152 155 176 183 168 203 -3 9 1 25 9 37 8 12 15 33 15 47 0
23 9 29 83 57 81 30 169 56 232 67 17 3 39 8 50 10 11 2 46 7 78 10 54 7 92 9
297 21 116 7 332 32 432 50 147 27 379 160 647 369 115 89 163 140 227 236 45
68 143 170 164 170 23 0 99 60 122 97 21 35 23 49 22 168 0 72 -3 164 -7 205
-3 41 -4 68 -1 58 7 -24 22 -26 94 -16 96 14 603 176 815 260 337 133 734 361
955 546 170 143 428 410 556 577 131 171 249 404 270 535 3 14 6 36 9 50 3 14
7 48 11 75 3 28 9 65 14 84 5 19 7 38 4 42 -2 4 0 10 5 13 5 3 8 21 7 40 -1
19 2 32 6 30 5 -3 9 6 9 20 1 14 2 32 3 39 1 6 -3 18 -8 26 -8 11 -8 13 2 7 7
-4 12 -2 12 6 0 7 3 24 6 38 4 20 3 22 -5 10 -6 -8 -11 -10 -11 -5 0 6 5 16
12 23 9 9 9 12 -3 12 -12 0 -12 2 1 10 10 6 11 10 3 10 -7 0 -13 5 -13 11 0 5
5 7 10 4 18 -11 11 14 -7 25 -17 11 -17 11 0 6 9 -3 17 -1 17 4 0 6 -4 10 -9
10 -9 0 -13 134 -4 156 2 7 18 14 34 18 16 3 54 21 84 40 54 35 85 77 85 116
0 28 -77 101 -158 150 -55 32 -62 40 -42 41 14 0 20 3 14 5 -12 5 10 139 48
294 13 52 25 120 26 150 2 31 18 100 39 161 l36 105 151 76 c83 42 212 106
286 142 185 91 271 143 414 256 54 42 262 255 320 327 90 114 187 279 181 311
-6 36 -31 59 -75 70 -42 10 -263 9 -340 -2 -166 -25 -228 -36 -460 -82 -14 -3
-74 -17 -135 -31 -60 -14 -170 -38 -243 -54 -74 -15 -139 -32 -145 -37 -7 -6
-48 -20 -92 -32 -93 -26 -552 -178 -577 -191 -41 -22 -13 2 43 38 34 21 72 45
85 53 56 36 360 242 477 325 71 49 139 97 151 105 29 20 171 129 266 203 128
101 454 416 591 572 24 28 46 52 49 55 3 3 55 64 115 135 60 72 112 132 116
135 16 14 142 195 182 265 l47 80 0 192 0 193 -52 1 c-208 5 -389 3 -423 -4
-55 -10 -105 -37 -202 -107 -46 -32 -83 -57 -83 -55 0 1 34 58 77 126 42 68
87 146 100 174 13 27 28 57 33 65 45 71 152 364 196 538 19 74 34 138 34 143
0 5 -15 9 -33 9 l-34 0 -28 -112 c-15 -62 -41 -151 -57 -198 -16 -47 -34 -100
-39 -118 -6 -19 -13 -31 -16 -29 -3 3 4 34 16 69 17 53 57 209 90 351 l9 37
-232 0 -231 -1 -105 -85z m441 -411 c-12 -20 -14 -14 -5 12 4 9 9 14 11 11 3
-2 0 -13 -6 -23z m-8751 -198 c-6 -31 -14 -55 -16 -52 -2 2 1 29 7 61 7 31 14
54 16 52 3 -2 -1 -30 -7 -61z m-32 -845 c-7 -10 -14 -17 -17 -15 -4 4 18 35
25 35 2 0 -1 -9 -8 -20z m-55 -150 c-3 -12 -8 -19 -11 -16 -5 6 5 36 12 36 2
0 2 -9 -1 -20z m-16 -87 c-3 -10 -5 -4 -5 12 0 17 2 24 5 18 2 -7 2 -21 0 -30z
m353 -3 c0 -5 -2 -10 -4 -10 -3 0 -8 5 -11 10 -3 6 -1 10 4 10 6 0 11 -4 11
-10z m1240 -300 c-6 -12 -14 -20 -17 -17 -2 3 1 14 8 26 17 26 24 19 9 -9z
m981 -137 c13 -16 12 -17 -3 -4 -10 7 -18 15 -18 17 0 8 8 3 21 -13z m854
-231 c-3 -3 -11 0 -18 7 -9 10 -8 11 6 5 10 -3 15 -9 12 -12z m45 -12 c8 -5
11 -10 5 -10 -5 0 -17 5 -25 10 -8 5 -10 10 -5 10 6 0 17 -5 25 -10z m-418
-77 c-54 -63 -92 -130 -92 -163 0 -13 -5 -20 -12 -17 -7 2 -11 11 -9 18 2 8 8
32 13 53 11 47 58 109 107 141 20 13 37 24 39 24 2 1 -19 -25 -46 -56z m-942
-105 c0 -12 -6 -9 -26 13 -19 22 -19 22 4 8 12 -8 22 -17 22 -21z m5871 -11
c-10 -9 -11 -8 -5 6 3 10 9 15 12 12 3 -3 0 -11 -7 -18z m-37 -25 c3 -5 -1 -9
-9 -9 -8 0 -12 4 -9 9 3 4 7 8 9 8 2 0 6 -4 9 -8z m-2770 -44 c-47 -52 -48
-53 -105 -127 -48 -64 -69 -83 -69 -65 0 14 186 224 198 224 3 0 -7 -14 -24
-32z m2729 7 c-3 -9 -8 -14 -10 -11 -3 3 -2 9 2 15 9 16 15 13 8 -4z m-73 -49
c0 -3 -4 -8 -10 -11 -5 -3 -10 -1 -10 4 0 6 5 11 10 11 6 0 10 -2 10 -4z
m-107 -71 c-3 -9 -8 -14 -10 -11 -3 3 -2 9 2 15 9 16 15 13 8 -4z m1539 -53
c4 -4 1 -14 -5 -23 -11 -14 -15 -12 -37 14 l-24 30 29 -7 c17 -4 33 -10 37
-14z m-6256 -116 c20 -21 36 -66 23 -66 -6 0 -8 -4 -5 -8 2 -4 -5 -9 -17 -9
-18 -2 -19 0 -7 8 12 9 11 10 -6 6 -12 -2 -28 0 -35 5 -11 7 -9 8 6 6 15 -2
20 2 19 19 -1 13 3 20 7 17 5 -3 7 -9 4 -14 -3 -5 -2 -11 3 -14 15 -9 10 28
-6 47 -18 20 -7 23 14 3z m613 -58 c11 4 11 6 0 13 -12 7 -12 9 -1 9 8 0 30
-17 50 -37 20 -21 43 -37 52 -35 8 2 0 -8 -19 -22 -19 -14 -31 -26 -26 -26 5
0 17 7 27 17 22 20 36 10 17 -13 -12 -15 -12 -16 6 -11 26 8 44 -3 42 -27 -1
-10 5 -21 13 -23 13 -4 13 -3 0 6 -8 5 -11 14 -6 18 5 4 11 2 13 -4 3 -7 3
-14 1 -15 -3 -4 16 -28 47 -59 l20 -20 -20 6 c-18 6 -18 5 -4 -7 14 -11 14
-15 2 -27 -12 -11 -14 -10 -11 5 2 11 -3 19 -12 19 -8 1 -14 7 -12 14 1 7 -2
10 -7 6 -6 -3 -8 -12 -4 -20 3 -10 -1 -15 -12 -15 -9 0 -13 -4 -10 -10 3 -5 1
-10 -4 -10 -14 0 -14 17 -1 25 6 3 10 11 10 17 0 6 -9 3 -19 -6 -11 -10 -17
-25 -15 -34 5 -14 4 -14 -6 1 -6 9 -18 17 -25 17 -17 0 -20 16 -5 25 6 4 8 11
4 16 -3 6 -12 3 -20 -8 -8 -10 -14 -13 -13 -8 1 6 1 17 0 25 -1 13 -2 13 -11
0 -9 -13 -10 -13 -11 0 -1 8 -1 18 0 23 0 4 -3 7 -9 7 -5 0 -10 -5 -10 -12 0
-7 -11 3 -24 21 -13 18 -27 28 -30 23 -7 -11 -31 -10 -42 1 -4 4 -18 4 -32 0
-18 -4 -23 -2 -18 6 4 6 12 8 18 5 8 -5 9 -1 5 10 -5 11 -3 15 5 10 8 -5 9 -2
5 9 -3 9 -2 19 4 22 5 4 7 10 4 15 -3 5 1 12 9 17 8 4 15 11 15 16 0 4 3 22 7
39 l7 32 21 -26 c11 -14 27 -23 35 -20z m-689 8 c0 -2 -7 -7 -16 -10 -8 -3
-12 -2 -9 4 6 10 25 14 25 6z m-127 -21 c-3 -9 -8 -14 -10 -11 -3 3 -2 9 2 15
9 16 15 13 8 -4z m2791 -27 c-16 -18 -32 -37 -36 -42 -5 -6 -8 -7 -8 -3 0 8
60 77 68 77 3 0 -7 -15 -24 -32z m-2590 -12 c-4 -10 2 -12 20 -9 16 3 23 10
19 17 -4 7 -3 8 5 1 5 -5 22 -39 36 -74 27 -66 32 -86 17 -63 -4 7 -17 14 -29
15 -12 0 -19 3 -17 6 3 2 -1 11 -7 20 -8 10 -4 9 10 -3 26 -23 29 -10 5 24
-21 30 -45 50 -55 44 -10 -6 -20 14 -13 26 9 15 15 12 9 -4z m-381 -57 c-8 -8
-11 -6 -10 7 1 11 -4 18 -11 16 -8 -1 -11 2 -7 9 5 8 12 6 23 -5 12 -12 13
-19 5 -27z m381 9 c-3 -4 -11 -5 -19 -1 -21 7 -19 12 4 10 11 0 18 -5 15 -9z
m-404 -34 c0 -8 -19 -13 -24 -6 -3 5 1 9 9 9 8 0 15 -2 15 -3z m430 -4 c0 -5
-5 -10 -11 -10 -5 0 -7 5 -4 10 3 6 8 10 11 10 2 0 4 -4 4 -10z m-40 -14 c0
-2 -7 -7 -16 -10 -8 -3 -12 -2 -9 4 6 10 25 14 25 6z m-442 -31 c-3 -3 -9 2
-12 12 -6 14 -5 15 5 6 7 -7 10 -15 7 -18z m-54 7 c3 -5 -1 -9 -9 -9 -8 0 -12
4 -9 9 3 4 7 8 9 8 2 0 6 -4 9 -8z m513 -37 c0 -8 -4 -12 -9 -9 -5 3 -6 10 -3
15 9 13 12 11 12 -6z m63 -1 c0 -8 -19 -13 -24 -6 -3 5 1 9 9 9 8 0 15 -2 15
-3z m11 -17 c-10 -9 -11 -8 -5 6 3 10 9 15 12 12 3 -3 0 -11 -7 -18z m-616 -6
c3 -5 2 -12 -3 -15 -5 -3 -9 1 -9 9 0 17 3 19 12 6z m543 -26 c-3 -3 -9 2 -12
12 -6 14 -5 15 5 6 7 -7 10 -15 7 -18z m118 -1 c1 -9 0 -13 -4 -10 -3 4 -7 14
-8 22 -1 9 0 13 4 10 3 -4 7 -14 8 -22z m681 1 c0 -8 -4 -12 -9 -9 -5 3 -6 10
-3 15 9 13 12 11 12 -6z m-853 -13 c3 -5 -1 -9 -9 -9 -8 0 -12 4 -9 9 3 4 7 8
9 8 2 0 6 -4 9 -8z m815 -15 c8 -10 7 -14 -2 -14 -8 0 -14 6 -14 14 0 7 1 13
2 13 2 0 8 -6 14 -13z m-599 -27 c0 -5 -5 -10 -11 -10 -5 0 -7 5 -4 10 3 6 8
10 11 10 2 0 4 -4 4 -10z m255 -28 c-3 -3 -11 0 -18 7 -9 10 -8 11 6 5 10 -3
15 -9 12 -12z m-1064 -39 c13 -16 12 -17 -3 -4 -17 13 -22 21 -14 21 2 0 10
-8 17 -17z m1504 8 c3 -5 2 -12 -3 -15 -5 -3 -9 1 -9 9 0 17 3 19 12 6z m50
-19 c-3 -3 -11 0 -18 7 -9 10 -8 11 6 5 10 -3 15 -9 12 -12z m11 -51 c3 -17 2
-31 -3 -31 -4 0 -9 17 -11 37 -3 43 7 39 14 -6z m-1526 -7 c0 -8 -19 -13 -24
-6 -3 5 1 9 9 9 8 0 15 -2 15 -3z m1470 -18 c0 -2 -7 -7 -16 -10 -8 -3 -12 -2
-9 4 6 10 25 14 25 6z m-1550 -22 c0 -8 -19 -13 -24 -6 -3 5 1 9 9 9 8 0 15
-2 15 -3z m1630 2 c0 -2 -9 -6 -20 -9 -11 -3 -18 -1 -14 4 5 9 34 13 34 5z
m-1370 -22 c0 -8 -19 -13 -24 -6 -3 5 1 9 9 9 8 0 15 -2 15 -3z m145 -3 c3 -5
2 -12 -3 -15 -5 -3 -9 1 -9 9 0 17 3 19 12 6z m105 -5 c-7 -7 -13 -7 -20 0 -6
6 -3 10 10 10 13 0 16 -4 10 -10z m1116 -10 c0 -17 -4 -22 -15 -18 -9 3 -11 7
-4 9 7 3 9 11 6 19 -3 8 -1 14 4 14 5 0 9 -11 9 -24z m-1539 -1 c0 -8 -4 -12
-9 -9 -5 3 -6 10 -3 15 9 13 12 11 12 -6z m-2147 -36 c0 -6 -4 -7 -10 -4 -5 3
-10 11 -10 16 0 6 5 7 10 4 6 -3 10 -11 10 -16z m2010 16 c0 -7 -30 -13 -34
-7 -3 4 4 9 15 9 10 1 19 0 19 -2z m95 -5 c3 -5 1 -10 -4 -10 -6 0 -11 5 -11
10 0 6 2 10 4 10 3 0 8 -4 11 -10z m1502 -5 c0 -8 -4 -12 -9 -9 -5 3 -6 10 -3
15 9 13 12 11 12 -6z m-1266 -28 c-10 -9 -11 -8 -5 6 3 10 9 15 12 12 3 -3 0
-11 -7 -18z m99 17 c0 -8 -19 -13 -24 -6 -3 5 1 9 9 9 8 0 15 -2 15 -3z m-153
-29 c0 -8 -4 -12 -9 -9 -5 3 -6 10 -3 15 9 13 12 11 12 -6z m148 -15 c10 -11
16 -20 13 -20 -3 0 -13 9 -23 20 -10 11 -16 20 -13 20 3 0 13 -9 23 -20z
m1259 -12 c-3 -4 -11 -8 -17 -7 -9 0 -9 2 0 5 7 3 9 13 6 22 -4 14 -3 14 5 2
6 -8 8 -18 6 -22z m-1707 7 c0 -8 -4 -12 -9 -9 -5 3 -6 10 -3 15 9 13 12 11
12 -6z m63 11 c0 -2 -7 -7 -16 -10 -8 -3 -12 -2 -9 4 6 10 25 14 25 6z m270 0
c0 -2 -8 -10 -17 -17 -16 -13 -17 -12 -4 4 13 16 21 21 21 13z m46 -18 c19
-23 19 -23 -2 -5 -11 9 -24 14 -29 10 -4 -5 -5 -2 -1 5 9 16 10 16 32 -10z
m40 -4 c1 -9 0 -13 -4 -10 -3 4 -7 14 -8 22 -1 9 0 13 4 10 3 -4 7 -14 8 -22z
m1204 -8 c0 -2 -8 -10 -17 -17 -16 -13 -17 -12 -4 4 13 16 21 21 21 13z
m-1280 -12 c0 -8 -19 -13 -24 -6 -3 5 1 9 9 9 8 0 15 -2 15 -3z m130 0 c0 -8
-19 -13 -24 -6 -3 5 1 9 9 9 8 0 15 -2 15 -3z m1240 -23 c0 -4 -6 -8 -13 -8
-8 0 -14 6 -14 13 0 7 6 10 14 7 7 -3 13 -8 13 -12z m-1365 -1 c-3 -5 -12 -10
-18 -10 -7 0 -6 4 3 10 19 12 23 12 15 0z m-68 -29 c0 -11 -5 -18 -9 -15 -4 3
-5 11 -1 19 7 21 12 19 10 -4z m123 15 c0 -3 -4 -8 -10 -11 -5 -3 -10 -1 -10
4 0 6 5 11 10 11 6 0 10 -2 10 -4z m2460 -148 c-61 -128 -137 -261 -125 -218
4 14 39 100 78 192 62 147 72 166 88 158 16 -9 12 -21 -41 -132z m-1260 122
c0 -5 -2 -10 -4 -10 -3 0 -8 5 -11 10 -3 6 -1 10 4 10 6 0 11 -4 11 -10z
m-1207 -15 c-3 -9 -8 -14 -10 -11 -3 3 -2 9 2 15 9 16 15 13 8 -4z m-362 -18
c-10 -9 -11 -8 -5 6 3 10 9 15 12 12 3 -3 0 -11 -7 -18z m1624 5 c-3 -3 -11 0
-18 7 -9 10 -8 11 6 5 10 -3 15 -9 12 -12z m42 -19 c1 -32 0 -34 -6 -13 -7 21
-4 50 3 50 2 0 3 -17 3 -37z m-3520 -18 c0 -8 -4 -12 -9 -9 -5 3 -6 10 -3 15
9 13 12 11 12 -6z m1798 -14 c3 -5 2 -12 -3 -15 -5 -3 -9 1 -9 9 0 17 3 19 12
6z m140 -1 c3 -5 1 -10 -4 -10 -6 0 -11 5 -11 10 0 6 2 10 4 10 3 0 8 -4 11
-10z m1569 -31 c-3 -5 -11 -9 -17 -8 -8 0 -8 2 1 6 10 4 10 8 0 21 -12 15 -11
16 4 3 10 -7 15 -17 12 -22z m-1738 6 c-3 -8 -1 -15 5 -15 6 0 9 -6 6 -14 -3
-7 -1 -18 5 -24 6 -6 6 -12 -3 -17 -7 -5 -10 -4 -5 3 3 6 2 13 -4 17 -6 4 -8
10 -5 15 3 5 1 11 -4 15 -10 5 -4 35 6 35 3 0 3 -7 -1 -15z m109 -3 c-3 -3
-11 0 -18 7 -9 10 -8 11 6 5 10 -3 15 -9 12 -12z m1541 6 c4 -7 3 -10 -1 -5
-5 4 -16 0 -26 -9 -13 -12 -19 -12 -25 -3 -4 7 -3 10 3 6 6 -4 16 0 23 8 15
18 17 18 26 3z m-1499 -23 c0 -8 -4 -12 -9 -9 -5 3 -6 10 -3 15 9 13 12 11 12
-6z m178 -4 c3 -5 2 -12 -3 -15 -5 -3 -9 1 -9 9 0 17 3 19 12 6z m1415 -5 c0
-2 -7 -9 -15 -16 -13 -11 -14 -10 -9 4 5 14 24 23 24 12z m-1554 -61 c2 -32 8
-49 18 -57 6 -4 5 -12 -3 -21 -8 -10 -9 -17 -1 -22 5 -3 10 -1 10 4 0 6 5 11
11 11 8 0 8 -4 0 -14 -7 -8 -8 -16 -4 -18 4 -3 3 -3 -4 -2 -6 2 -14 0 -16 -4
-2 -4 -3 -2 -1 5 4 18 -8 24 -25 11 -9 -7 -6 -1 7 13 12 14 19 29 15 33 -8 7
-13 28 -17 65 -1 15 -9 25 -20 27 -10 1 -21 6 -24 10 -4 4 1 4 11 1 10 -4 17
-1 17 6 1 18 24 -25 26 -48z m1494 21 c0 -2 -8 -10 -17 -17 -16 -13 -17 -12
-4 4 13 16 21 21 21 13z m35 -6 c-3 -5 -12 -10 -18 -10 -7 0 -6 4 3 10 19 12
23 12 15 0z m-149 -12 c5 -7 3 -8 -6 -3 -9 5 -10 2 -5 -14 5 -15 2 -21 -9 -21
-19 0 -20 5 -6 31 12 22 16 23 26 7z m-301 -16 c-3 -3 -11 0 -18 7 -9 10 -8
11 6 5 10 -3 15 -9 12 -12z m-1202 -7 c-3 -9 -8 -14 -10 -11 -3 3 -2 9 2 15 9
16 15 13 8 -4z m-33 -5 c0 -5 -2 -10 -4 -10 -3 0 -8 5 -11 10 -3 6 -1 10 4 10
6 0 11 -4 11 -10z m1220 -20 c0 -5 -5 -10 -11 -10 -5 0 -7 5 -4 10 3 6 8 10
11 10 2 0 4 -4 4 -10z m-1205 -12 c5 4 5 1 1 -6 -6 -10 -11 -10 -22 -1 -8 6
-14 14 -14 16 0 3 6 0 13 -6 8 -6 18 -7 22 -3z m1491 -10 c-3 -13 -5 -23 -6
-23 -1 0 -3 -9 -5 -19 -2 -10 -9 -22 -15 -26 -7 -4 -11 -10 -10 -14 4 -13 -22
-66 -32 -66 -5 0 -7 -4 -4 -9 3 -5 -1 -14 -9 -21 -8 -7 -12 -16 -9 -21 5 -8
-1 -11 -35 -13 -8 -1 -16 -7 -19 -14 -2 -6 2 -10 10 -9 7 2 10 2 5 0 -4 -3 -4
-10 -1 -15 5 -7 2 -8 -6 -3 -10 6 -12 4 -7 -9 4 -10 3 -15 -3 -11 -6 3 -10 0
-10 -7 0 -10 -3 -9 -9 2 -6 8 -7 18 -4 23 3 5 -4 6 -17 2 -16 -5 -21 -4 -18 6
3 8 12 13 21 11 11 -2 15 2 11 13 -4 8 1 17 10 21 9 3 13 11 9 17 -3 6 -1 7 5
3 7 -4 12 -1 13 6 0 10 2 10 6 0 2 -6 9 -9 14 -6 6 3 5 12 -3 22 -8 10 -9 13
-1 9 10 -7 30 27 25 44 0 3 10 5 24 3 20 -2 24 1 19 17 -4 10 -2 19 4 19 5 0
8 9 6 19 -2 11 3 25 11 31 7 7 11 17 7 23 -3 6 -1 7 5 3 7 -4 12 -2 12 3 0 6
2 11 5 11 3 0 3 -10 1 -22z m72 -3 c-3 -3 -9 2 -12 12 -6 14 -5 15 5 6 7 -7
10 -15 7 -18z m-22 -30 c-1 -8 -5 -17 -8 -21 -5 -4 -4 16 1 34 3 9 9 -1 7 -13z
m-23 -50 c4 -8 3 -16 -1 -19 -4 -3 -9 4 -9 15 -2 23 3 25 10 4z m-376 -12 c-4
-3 -1 -13 6 -22 11 -14 10 -14 -5 -2 -16 12 -16 31 -1 31 4 0 3 -3 0 -7z
m-1019 -28 c-3 -3 -9 2 -12 12 -6 14 -5 15 5 6 7 -7 10 -15 7 -18z m1055 10
c-3 -9 -8 -14 -10 -11 -3 3 -2 9 2 15 9 16 15 13 8 -4z m300 0 c-3 -9 -8 -14
-10 -11 -3 3 -2 9 2 15 9 16 15 13 8 -4z m-1282 -12 c13 -16 12 -17 -3 -4 -10
7 -18 15 -18 17 0 8 8 3 21 -13z m889 7 c0 -5 -5 -10 -11 -10 -5 0 -7 5 -4 10
3 6 8 10 11 10 2 0 4 -4 4 -10z m-2765 -10 c-3 -5 -12 -10 -18 -10 -7 0 -6 4
3 10 19 12 23 12 15 0z m2662 -5 c0 -8 -4 -12 -9 -9 -5 3 -6 10 -3 15 9 13 12
11 12 -6z m-33 -4 c3 -4 -4 -7 -14 -6 -27 2 -33 10 -10 12 11 1 22 -2 24 -6z
m-789 -10 c3 -5 2 -12 -3 -15 -5 -3 -9 1 -9 9 0 17 3 19 12 6z m962 -6 c0 -8
-4 -15 -9 -15 -10 0 -11 14 -1 23 9 10 10 9 10 -8z m-62 -25 c3 -5 1 -10 -4
-10 -6 0 -11 5 -11 10 0 6 2 10 4 10 3 0 8 -4 11 -10z m36 -7 c13 -16 12 -17
-3 -4 -10 7 -18 15 -18 17 0 8 8 3 21 -13z m-865 -32 c-2 -3 11 -17 30 -31 20
-16 31 -31 28 -41 -2 -9 2 -16 11 -16 10 0 14 7 10 21 -5 19 -4 19 6 -1 7 -13
18 -23 26 -23 7 0 13 -6 13 -12 0 -10 2 -10 9 0 6 10 10 10 20 -2 7 -8 20 -12
29 -10 15 5 15 4 0 -6 -25 -16 -22 -33 2 -18 18 11 24 10 41 -12 14 -17 19
-19 15 -7 -5 14 -2 16 13 8 10 -6 22 -7 26 -3 3 4 6 3 5 -3 -5 -24 1 -27 15
-9 11 13 14 14 13 4 -2 -8 -7 -19 -13 -23 -6 -5 -1 -6 10 -4 11 2 19 9 17 17
-2 9 4 9 23 -4 17 -11 25 -13 25 -4 0 6 7 3 15 -8 10 -12 14 -14 12 -4 -2 8
-2 12 0 7 3 -4 10 -4 16 0 7 4 17 8 22 9 29 5 41 10 47 19 5 6 8 6 8 -1 0 -6
16 -10 39 -9 29 1 38 -2 34 -12 -4 -9 0 -11 13 -6 18 7 18 6 2 -11 -10 -9 -18
-23 -18 -29 0 -7 5 -4 11 5 5 9 16 15 23 12 18 -7 15 24 -3 36 -9 5 -10 10 -2
14 6 4 11 3 11 -3 0 -7 8 -7 25 -1 17 7 25 6 25 -1 0 -8 5 -8 15 1 8 6 19 9
24 6 5 -4 12 -2 15 3 4 5 19 8 34 7 15 -2 31 2 35 8 6 8 10 7 14 -3 5 -11 7
-11 14 0 7 12 9 11 9 -1 0 -9 6 -6 16 9 13 18 18 20 25 10 8 -12 10 -12 18 0
5 7 14 10 20 7 6 -4 11 -1 11 6 0 10 2 10 9 0 4 -8 12 -14 17 -14 5 0 8 -4 7
-8 -1 -4 4 -11 13 -14 22 -9 13 26 -11 41 -20 12 -10 18 24 14 7 -2 10 2 6 9
-6 9 -2 9 13 1 25 -13 35 -14 28 -2 -3 4 4 19 16 32 16 18 19 19 15 6 -6 -15
-3 -17 12 -12 20 6 38 -20 20 -30 -5 -4 -7 -10 -5 -14 3 -4 -1 -8 -9 -8 -8 0
-11 5 -8 10 3 5 0 7 -8 5 -8 -3 -13 -13 -11 -22 3 -14 -1 -16 -19 -11 -16 5
-19 4 -14 -5 6 -9 4 -11 -5 -5 -7 4 -16 2 -20 -5 -5 -8 -18 -15 -30 -17 -12
-2 -19 1 -15 6 3 5 1 12 -5 16 -5 3 -10 1 -10 -5 0 -7 -7 -10 -17 -6 -17 6
-17 5 0 -8 15 -12 15 -14 3 -19 -9 -4 -18 -2 -21 4 -4 5 -11 7 -16 3 -5 -3 -7
-9 -5 -13 3 -4 -6 -8 -20 -9 -13 -1 -35 -3 -49 -4 -14 -1 -25 -6 -25 -11 0 -5
-6 -7 -14 -4 -7 3 -23 -1 -34 -8 -21 -16 -34 -11 -26 10 6 16 -13 14 -41 -3
-19 -12 -19 -13 3 -7 12 4 22 2 22 -3 0 -4 -12 -9 -27 -10 -79 -5 -99 -8 -110
-15 -6 -4 -15 -2 -19 4 -4 8 -9 7 -15 -2 -5 -8 -9 -9 -9 -4 0 6 -28 10 -70 10
-70 -1 -79 2 -59 22 6 6 7 13 1 17 -5 3 -15 -6 -22 -19 -7 -14 -18 -25 -23
-25 -5 0 -4 6 2 14 9 10 8 15 -3 19 -9 4 -18 1 -22 -5 -5 -7 -2 -8 6 -3 9 5
11 4 6 -3 -13 -21 -28 -13 -20 10 6 21 6 22 -12 8 -10 -8 -22 -19 -26 -25 -5
-6 -8 -5 -8 3 0 7 -4 10 -10 7 -5 -3 -7 0 -4 9 7 19 -24 15 -37 -5 -7 -12 -9
-12 -9 0 0 8 -3 11 -7 8 -3 -4 -12 -2 -20 5 -7 6 -16 8 -20 5 -3 -4 -13 -1
-21 5 -8 7 -21 13 -29 14 -28 4 -44 14 -38 23 3 5 1 12 -5 16 -5 3 -10 1 -10
-6 0 -8 -4 -8 -15 1 -8 7 -12 17 -8 23 4 6 0 8 -8 5 -8 -3 -23 0 -34 8 -10 8
-13 14 -6 14 7 0 9 5 6 10 -4 6 -10 8 -15 5 -4 -3 -14 3 -21 13 -12 15 -12 16
2 5 13 -11 18 -9 29 12 7 13 17 22 22 19 4 -3 8 0 8 5 0 6 -4 11 -9 11 -5 0
-8 11 -7 25 1 22 2 23 13 9 7 -9 11 -20 9 -23z m709 9 c10 -11 16 -20 13 -20
-3 0 -13 9 -23 20 -10 11 -16 20 -13 20 3 0 13 -9 23 -20z m82 5 c0 -8 -4 -12
-9 -9 -5 3 -6 10 -3 15 9 13 12 11 12 -6z m-37 -15 c0 -5 -2 -10 -4 -10 -3 0
-8 5 -11 10 -3 6 -1 10 4 10 6 0 11 -4 11 -10z m-63 -29 c0 -11 -5 -18 -9 -15
-4 3 -5 11 -1 19 7 21 12 19 10 -4z m103 9 c0 -5 -2 -10 -4 -10 -3 0 -8 5 -11
10 -3 6 -1 10 4 10 6 0 11 -4 11 -10z m151 -3 c-5 -5 -17 -10 -27 -11 -10 -2
-20 -9 -22 -16 -3 -8 0 -10 8 -5 9 5 11 4 6 -4 -6 -8 -12 -9 -20 -2 -7 6 -16
8 -20 4 -4 -4 -4 0 0 10 3 9 10 15 14 12 4 -3 12 1 18 8 6 7 20 13 31 13 12 0
17 -4 12 -9z m-135 -53 c-23 -17 -36 -18 -36 -3 0 5 5 7 10 4 6 -3 10 -1 10 5
0 6 5 8 10 5 6 -3 10 -1 10 6 0 7 3 9 7 5 5 -4 -1 -14 -11 -22z m44 16 c0 -5
-4 -10 -10 -10 -5 0 -10 5 -10 10 0 6 5 10 10 10 6 0 10 -4 10 -10z m-140 -34
c0 -2 -7 -7 -16 -10 -8 -3 -12 -2 -9 4 6 10 25 14 25 6z m660 -122 c0 -8 -19
-13 -24 -6 -3 5 1 9 9 9 8 0 15 -2 15 -3z m-64 -76 c4 -7 3 -8 -4 -4 -7 4 -12
1 -12 -6 0 -8 -9 -14 -20 -14 -20 0 -20 1 2 18 28 21 25 21 34 6z m-86 -67 c0
-6 -5 -13 -12 -17 -6 -4 -8 -3 -4 4 3 5 0 13 -6 15 -8 3 -6 6 5 6 9 1 17 -3
17 -8z m-1179 -28 c13 -16 12 -17 -3 -4 -17 13 -22 21 -14 21 2 0 10 -8 17
-17z m1149 8 c0 -16 -28 -33 -35 -21 -3 5 -11 10 -17 10 -7 0 -6 -5 1 -14 9
-11 9 -16 0 -22 -7 -4 -9 -3 -5 4 3 6 2 13 -4 17 -15 9 -1 27 16 21 7 -3 16
-1 19 4 8 12 25 13 25 1z m-1055 -58 c21 -18 22 -21 5 -9 -14 9 -35 21 -47 26
-27 11 -30 20 -5 13 9 -2 31 -16 47 -30z m978 11 c-3 -8 -11 -13 -19 -10 -7 3
-18 -2 -24 -9 -7 -8 -16 -12 -21 -9 -5 3 -9 -1 -10 -8 0 -10 -2 -10 -6 -1 -3
10 -8 9 -19 -2 -8 -8 -22 -11 -31 -8 -12 5 -14 3 -8 -8 4 -8 5 -11 0 -7 -4 4
-15 2 -23 -5 -12 -9 -16 -9 -19 1 -3 6 -9 12 -14 12 -6 0 -8 -4 -4 -9 3 -5 0
-13 -6 -17 -8 -4 -9 -3 -5 4 4 7 3 12 -2 12 -6 0 -12 -7 -16 -15 -3 -8 -12
-12 -21 -9 -8 4 -15 1 -15 -6 0 -9 -3 -10 -13 -1 -8 6 -17 8 -21 4 -12 -12
-55 -11 -60 2 -2 7 5 11 17 10 12 -1 25 3 29 9 5 7 8 6 8 -4 0 -13 1 -13 10 0
6 10 10 11 10 3 0 -7 5 -13 11 -13 5 0 7 5 3 11 -4 7 1 7 16 -1 20 -11 22 -10
17 4 -4 10 -3 15 3 11 6 -3 10 -2 10 4 0 5 10 8 23 7 34 -4 69 11 62 26 -4 7
1 4 9 -6 15 -18 21 -15 16 9 -1 6 2 7 6 3 4 -4 14 -2 22 5 12 9 16 9 19 -1 3
-6 9 -10 13 -7 5 3 7 13 4 23 -5 14 -4 15 5 2 9 -13 11 -13 11 0 0 13 1 13 10
0 9 -14 14 -7 11 13 -1 5 3 6 8 2 6 -3 7 -13 4 -21z m-918 -34 c3 -5 2 -10 -4
-10 -5 0 -13 5 -16 10 -3 6 -2 10 4 10 5 0 13 -4 16 -10z m35 -20 c0 -5 -2
-10 -4 -10 -3 0 -8 5 -11 10 -3 6 -1 10 4 10 6 0 11 -4 11 -10z m70 -16 c0 4
5 4 10 1 6 -4 8 -11 5 -16 -4 -5 -17 -2 -31 7 -13 9 -24 13 -24 10 0 -4 -5 -4
-10 -1 -6 4 -8 11 -5 16 4 5 17 2 31 -7 13 -9 24 -13 24 -10z m86 -17 c8 3 14
0 14 -7 0 -6 5 -8 12 -4 16 10 48 13 53 4 2 -4 27 -6 55 -4 41 1 50 -1 50 -15
0 -14 -2 -14 -10 -1 -9 13 -10 13 -10 0 0 -13 -1 -13 -10 0 -6 10 -10 11 -10
3 0 -7 -5 -13 -11 -13 -5 0 -7 5 -4 10 3 6 1 10 -4 10 -6 0 -11 -6 -11 -12 0
-9 -4 -8 -10 2 -8 13 -10 13 -10 1 0 -11 -4 -10 -16 5 -15 18 -15 18 -10 0 5
-14 3 -16 -6 -9 -7 6 -21 9 -30 8 -10 -2 -20 1 -23 5 -3 5 -19 7 -35 5 -25 -3
-28 -2 -17 10 6 7 16 10 21 5 5 -5 15 -6 22 -3z m364 -16 c0 -4 -17 -7 -37 -6
-21 1 -45 -3 -53 -9 -13 -10 -13 -9 0 9 8 11 15 22 17 24 1 1 8 -1 15 -5 23
-15 40 -13 34 3 -5 13 -4 14 9 3 8 -7 15 -16 15 -19z m-110 0 c-13 -8 -29 -16
-37 -17 -12 -2 -12 0 1 15 8 9 25 17 37 17 l21 0 -22 -15z m4830 -140 c-5 -10
-16 -21 -24 -24 -12 -5 -11 0 2 23 18 30 39 31 22 1z m-6630 -181 c0 -22 -7
-25 -29 -11 -16 10 -6 31 15 31 8 0 14 -9 14 -20z m6430 13 c0 -5 -5 -15 -10
-23 -8 -12 -10 -11 -10 8 0 12 5 22 10 22 6 0 10 -3 10 -7z m-6639 -20 c13
-16 12 -17 -3 -4 -17 13 -22 21 -14 21 2 0 10 -8 17 -17z m6699 -317 c0 -3 -4
-8 -10 -11 -5 -3 -10 -1 -10 4 0 6 5 11 10 11 6 0 10 -2 10 -4z m-760 -1289
c-76 -73 -184 -167 -255 -221 -43 -32 -45 -33 -15 -6 69 65 97 88 119 99 12 7
19 16 16 22 -4 5 -3 8 2 7 4 -1 28 18 53 43 47 47 131 119 140 119 3 0 -24
-28 -60 -63z m-6366 -612 c-9 -14 -19 -23 -22 -20 -5 4 26 45 35 45 2 0 -4
-11 -13 -25z m3062 -132 c-11 -11 -19 6 -11 24 8 17 8 17 12 0 3 -10 2 -21 -1
-24z m964 -173 c0 -5 -5 -10 -11 -10 -5 0 -7 5 -4 10 3 6 8 10 11 10 2 0 4 -4
4 -10z m-2540 -260 c0 -5 -5 -10 -11 -10 -5 0 -7 5 -4 10 3 6 8 10 11 10 2 0
4 -4 4 -10z m1435 -54 c72 -19 166 -39 210 -46 89 -13 144 -26 162 -38 7 -4
15 -26 18 -47 12 -95 65 -288 98 -353 15 -31 15 -32 -16 -51 -115 -70 -334
-165 -487 -211 -89 -26 -138 -39 -260 -65 -13 -2 -91 -14 -210 -32 -19 -2 -66
-11 -105 -20 -38 -8 -79 -16 -91 -19 -61 -12 -287 -97 -331 -124 -18 -12 -25
-9 -64 28 -130 122 -286 238 -533 395 -65 41 -74 50 -64 65 17 26 194 184 275
246 l71 55 28 -42 c99 -150 295 -250 396 -203 32 16 36 15 83 -8 90 -43 146
-57 224 -57 42 0 90 3 106 7 17 3 35 7 40 8 30 6 78 41 118 86 63 70 89 142
93 260 3 52 6 111 8 130 3 19 5 49 5 67 l1 32 48 -15 c26 -8 106 -30 177 -48z
m-1895 -327 c-7 -11 -14 -18 -17 -15 -3 3 0 12 7 21 18 21 23 19 10 -6z m926
-968 c-12 -19 -24 -12 -19 10 4 13 9 17 15 11 6 -6 7 -15 4 -21z"/>
<path d="M3821 6588 c-5 -15 -4 -26 3 -30 6 -4 1 -10 -13 -16 -20 -7 -21 -10
-8 -15 10 -4 17 -1 17 6 0 8 3 8 9 -2 6 -9 11 -10 15 -2 4 6 1 11 -6 11 -9 0
-9 3 2 10 11 7 11 10 2 10 -7 0 -10 5 -6 11 4 8 9 7 16 -2 8 -11 9 -11 5 1 -2
8 -10 14 -17 12 -8 -2 -10 3 -7 13 4 8 4 15 1 15 -2 0 -8 -10 -13 -22z"/>
<path d="M3885 6582 c-5 -4 -16 -15 -23 -24 -12 -15 -11 -17 7 -15 14 1 20 6
16 15 -2 7 -1 11 4 7 5 -3 11 1 14 7 2 7 3 -6 2 -29 -2 -33 1 -43 12 -43 9 0
13 6 10 15 -4 8 -2 17 4 20 5 4 8 3 7 -2 -2 -4 0 -9 5 -10 12 -5 8 6 -15 37
-23 32 -27 34 -43 22z m40 -32 c3 -5 1 -10 -4 -10 -6 0 -11 5 -11 10 0 6 2 10
4 10 3 0 8 -4 11 -10z"/>
<path d="M3856 6525 c-8 -7 -12 -16 -8 -21 4 -4 0 -4 -8 2 -26 18 -53 11 -55
-14 -1 -20 6 -32 26 -44 3 -1 13 3 21 10 13 10 18 8 32 -13 14 -21 20 -24 32
-14 14 11 20 1 14 -26 -1 -5 2 -7 6 -3 4 4 13 3 21 -3 7 -6 13 -8 13 -4 0 4 7
2 15 -5 12 -10 13 -16 3 -28 -10 -13 -10 -14 0 -8 7 4 12 2 12 -5 0 -7 11 -2
25 11 14 13 25 20 25 16 0 -5 7 -3 15 4 14 12 19 7 16 -13 -1 -5 3 -6 9 -2 14
9 -3 38 -34 58 -22 15 -25 15 -38 0 -11 -14 -10 -15 11 -8 20 6 23 4 18 -10
-4 -9 -7 -18 -7 -20 0 -3 -9 -9 -20 -15 -11 -6 -20 -7 -19 -3 1 4 -2 18 -6 31
-6 18 -10 20 -21 11 -12 -10 -13 -8 -8 6 5 12 4 16 -4 11 -14 -8 -45 35 -33
47 11 11 34 -1 26 -13 -3 -5 6 -17 21 -27 26 -17 27 -16 46 7 22 27 9 52 -15
31 -19 -15 -31 11 -14 30 8 8 5 8 -7 -1 -10 -8 -31 -15 -46 -16 -24 -1 -27 2
-25 26 2 29 -12 34 -39 15z m29 -32 c-1 -15 2 -34 8 -40 5 -7 7 -13 3 -13 -3
0 -8 0 -11 0 -3 0 -4 2 -2 5 1 2 -9 12 -22 22 -19 13 -26 14 -29 4 -4 -11 -6
-11 -13 0 -7 11 -9 11 -9 1 0 -7 -5 -10 -11 -6 -8 4 -7 9 2 15 12 8 11 11 -1
19 -23 15 2 11 30 -5 33 -19 39 -18 35 3 -3 21 4 34 14 28 4 -3 7 -18 6 -33z
m108 -42 c-15 -19 -43 -18 -43 0 0 14 20 11 20 -3 0 -7 5 -5 11 5 5 9 14 17
19 17 6 0 2 -9 -7 -19z m50 -56 c-3 -9 -8 -14 -10 -11 -3 3 -2 9 2 15 9 16 15
13 8 -4z"/>
<path d="M3987 6393 c3 -7 9 -13 13 -13 4 0 10 6 13 13 3 7 -3 13 -13 13 -10
0 -16 -6 -13 -13z"/>
<path d="M3973 5588 c-11 -19 -13 -39 -1 -32 5 3 7 9 4 12 -3 3 -1 11 5 19 6
7 9 13 6 13 -3 0 -9 -6 -14 -12z"/>
<path d="M3910 5471 c-12 -17 -18 -31 -14 -31 3 0 1 -7 -6 -15 -6 -8 -15 -14
-18 -13 -13 2 -42 -14 -42 -25 0 -5 8 -3 18 6 10 10 22 14 26 10 3 -4 14 4 24
18 9 13 14 25 12 25 -3 1 4 11 14 23 11 12 17 24 14 27 -3 3 -16 -9 -28 -25z"/>
<path d="M2734 5357 c-3 -9 -10 -15 -14 -12 -13 8 -23 -15 -12 -28 10 -11 12
-18 12 -33 0 -4 6 -1 14 5 11 9 15 9 20 -1 5 -10 7 -10 12 -1 4 9 11 9 30 -3
13 -9 24 -12 24 -8 0 5 5 2 10 -6 9 -13 10 -13 10 0 1 12 3 11 11 -3 9 -15 13
-16 27 -5 15 11 15 11 4 -4 -7 -9 -9 -18 -5 -20 4 -3 2 -3 -5 -1 -7 1 -10 -2
-7 -7 3 -6 1 -10 -5 -10 -7 0 -10 7 -7 15 9 23 -8 26 -22 3 -7 -11 -8 -17 -3
-14 5 3 15 -1 22 -10 11 -12 15 -12 22 -2 6 10 10 10 18 -2 10 -16 29 -20 45
-10 16 10 35 6 45 -10 7 -10 10 -11 10 -2 0 6 3 11 8 11 19 -3 23 2 12 16 -9
11 -16 12 -25 5 -10 -8 -17 -5 -28 11 -17 24 -53 19 -44 -6 4 -9 1 -12 -7 -9
-7 3 -13 17 -12 32 1 17 -4 27 -14 28 -8 1 -19 3 -25 4 -5 1 -13 2 -17 1 -5 0
-8 5 -8 12 0 8 -4 7 -10 -3 -6 -10 -10 -11 -10 -2 0 6 -6 11 -12 10 -7 -2 -12
5 -12 14 1 9 -9 27 -22 39 -21 19 -24 20 -30 6z m39 -43 c-6 -16 -23 -19 -23
-4 0 6 5 10 12 10 6 0 3 10 -8 23 l-19 22 22 -18 c12 -11 19 -25 16 -33z m-31
5 c-2 -8 -8 -18 -13 -24 -7 -7 -8 -4 -4 8 4 10 2 17 -4 17 -6 0 -11 4 -11 9 0
5 8 8 18 6 9 -1 16 -9 14 -16z m209 -96 c7 -10 9 -15 5 -11 -5 4 -15 3 -22 -3
-11 -9 -13 2 -5 29 2 6 10 1 22 -15z m53 -11 c3 -5 -1 -9 -9 -9 -8 0 -12 4 -9
9 3 4 7 8 9 8 2 0 6 -4 9 -8z"/>
<path d="M3759 5323 c-1 -2 -2 -9 -3 -15 -1 -7 -12 -13 -25 -13 -15 0 -25 -6
-27 -17 -2 -15 1 -16 17 -7 11 5 25 7 31 3 6 -4 8 -3 5 3 -8 12 16 35 31 31 5
-2 9 1 9 7 -2 8 -35 16 -38 8z"/>
<path d="M2760 5269 c-13 -9 -12 -10 2 -5 10 3 20 1 23 -5 4 -5 12 -6 18 -2 7
4 5 -2 -3 -12 -14 -17 -13 -18 3 -12 10 4 21 7 23 7 14 0 0 19 -21 28 -31 14
-27 14 -45 1z"/>
<path d="M3614 5258 c-3 -5 -14 -6 -24 -3 -12 4 -19 -1 -24 -17 -3 -14 -9 -19
-13 -13 -10 13 -63 15 -63 2 0 -5 -7 -4 -15 3 -15 13 -39 5 -30 -11 4 -5 2 -9
-4 -9 -5 0 -11 5 -13 12 -3 7 -9 8 -19 3 -8 -5 -25 -8 -39 -6 -24 3 -24 2 -5
-12 11 -9 24 -12 30 -7 5 4 17 6 25 5 8 -2 27 -5 43 -8 21 -4 30 -1 38 15 11
21 12 21 25 3 8 -10 14 -14 14 -7 0 6 9 9 19 7 11 -2 25 3 32 11 9 12 15 12
28 2 14 -12 14 -11 2 5 -7 9 -11 18 -7 18 3 1 10 2 15 3 17 2 21 13 6 13 -9 0
-18 -4 -21 -9z m-146 -53 c-3 -3 -9 2 -12 12 -6 14 -5 15 5 6 7 -7 10 -15 7
-18z"/>
<path d="M3207 5208 c2 -5 -7 -7 -21 -4 -19 3 -29 -1 -36 -15 -13 -23 -16 -21
43 -24 27 -1 47 3 47 9 0 5 6 2 13 -9 13 -17 15 -17 30 5 8 12 13 29 10 37 -5
12 -7 12 -14 1 -5 -7 -9 -8 -9 -3 0 6 -15 11 -34 11 -19 0 -32 -4 -29 -8z m70
-10 c8 -1 8 -6 0 -19 -11 -18 -12 -17 -23 3 -7 14 -14 17 -18 9 -4 -6 -12 -9
-17 -6 -5 4 -9 2 -9 -3 0 -4 -13 -8 -29 -8 -17 0 -28 3 -25 7 2 5 12 5 21 2
11 -4 14 -3 9 5 -4 8 -2 10 7 6 8 -3 18 -1 21 5 4 5 16 7 29 5 12 -3 27 -6 34
-6z"/>
<path d="M3065 5201 c-3 -5 0 -13 6 -17 7 -4 9 -3 5 4 -3 5 0 13 6 15 9 4 10
6 1 6 -6 1 -14 -3 -18 -8z"/>
<path d="M3112 5195 c4 -4 3 -13 -2 -20 -7 -8 -5 -12 5 -12 18 0 20 23 3 33
-7 4 -10 4 -6 -1z"/>
<path d="M3353 5185 c0 -8 4 -12 9 -9 4 3 8 9 8 15 0 5 -4 9 -8 9 -5 0 -9 -7
-9 -15z"/>
<path d="M1593 4200 c1 -11 5 -20 9 -20 3 0 6 9 5 20 -1 11 -5 20 -9 20 -3 0
-6 -9 -5 -20z"/>
</g>
</svg>
